<svg xmlns="http://www.w3.org/2000/svg" width="44.727" height="37.85" viewBox="0 0 44.727 37.85"><defs><style>.a{fill:#2ebaa8;}</style></defs><g transform="translate(-128.288 -101.342)"><g transform="translate(128.288 101.342)"><g transform="translate(0 0)"><path class="a" d="M169.585,104.773a11.747,11.747,0,0,0-16.594,0l-2.3,2.3a.081.081,0,0,1-.06.025.079.079,0,0,1-.06-.025l-2.261-2.261A11.733,11.733,0,1,0,131.719,121.4L148.711,138.4a2.721,2.721,0,0,0,3.848,0l9.338-9.339a1.318,1.318,0,0,0-1.864-1.864l-9.338,9.339a.081.081,0,0,1-.06.025.08.08,0,0,1-.06-.025l-16.992-16.992a9.1,9.1,0,1,1,12.866-12.866l2.261,2.261a2.721,2.721,0,0,0,3.848,0l2.3-2.3A9.1,9.1,0,0,1,167.721,119.5l-3.935,3.936a1.318,1.318,0,0,0,1.864,1.864l3.935-3.936A11.747,11.747,0,0,0,169.585,104.773Z" transform="translate(-128.288 -101.342)"/></g></g></g></svg>